<?xml version="1.0" encoding="UTF-8" standalone="no"?>
<!-- Created with Inkscape (http://www.inkscape.org/) -->

<svg
   xmlns:dc="http://purl.org/dc/elements/1.1/"
   xmlns:cc="http://creativecommons.org/ns#"
   xmlns:rdf="http://www.w3.org/1999/02/22-rdf-syntax-ns#"
   xmlns:svg="http://www.w3.org/2000/svg"
   xmlns="http://www.w3.org/2000/svg"
   xmlns:sodipodi="http://sodipodi.sourceforge.net/DTD/sodipodi-0.dtd"
   xmlns:inkscape="http://www.inkscape.org/namespaces/inkscape"
   width="290.7309"
   height="64.5625"
   id="svg3097"
   version="1.1"
   inkscape:version="0.48.4 r9939"
   sodipodi:docname="New document 2">
  <defs
     id="defs3099" />
  <sodipodi:namedview
     id="base"
     pagecolor="#ffffff"
     bordercolor="#666666"
     borderopacity="1.0"
     inkscape:pageopacity="0.0"
     inkscape:pageshadow="2"
     inkscape:zoom="0.35"
     inkscape:cx="-418.20598"
     inkscape:cy="-370.57589"
     inkscape:document-units="px"
     inkscape:current-layer="layer1"
     showgrid="false"
     fit-margin-top="0"
     fit-margin-left="0"
     fit-margin-right="0"
     fit-margin-bottom="0"
     inkscape:window-width="1374"
     inkscape:window-height="792"
     inkscape:window-x="0"
     inkscape:window-y="42"
     inkscape:window-maximized="1" />
  <metadata
     id="metadata3102">
    <rdf:RDF>
      <cc:Work
         rdf:about="">
        <dc:format>image/svg+xml</dc:format>
        <dc:type
           rdf:resource="http://purl.org/dc/dcmitype/StillImage" />
        <dc:title></dc:title>
      </cc:Work>
    </rdf:RDF>
  </metadata>
  <g
     inkscape:label="Layer 1"
     inkscape:groupmode="layer"
     id="layer1"
     transform="translate(-163.20598,-97.22379)">
    <g
       id="g3029"
       transform="translate(-256.76277,-284.74496)">
      <path
         inkscape:connector-curvature="0"
         id="path4316-2-5-8-4-2-3"
         d="m 452.28125,381.96875 c -17.83283,0 -32.3125,14.44849 -32.3125,32.28125 0,17.83277 14.47967,32.28125 32.3125,32.28125 17.8327,0 32.28125,-14.44848 32.28125,-32.28125 0,-9.73191 -4.31498,-18.4551 -11.125,-24.375 l 0,32.28125 c 0,3.57749 -1.2048,6.67212 -3.625,9.25 -2.3674,2.57789 -5.32875,3.875 -8.90625,3.875 l -16.96875,0 c -3.5773,0 -6.51905,-1.10288 -8.78125,-3.3125 -2.26223,-2.20961 -3.375,-5.11001 -3.375,-8.6875 l 0,-12.25 c 0,-3.73528 1.11277,-6.79866 3.375,-9.21875 2.2622,-2.42002 5.2548,-3.62496 8.9375,-3.625 l 19.15625,0.0625 -0.0625,5.0625 -19.09375,0 c -2.1044,3e-5 -3.8097,0.80662 -5.125,2.4375 -1.3152,1.63094 -2,3.48938 -2,5.59375 l 0,11.21875 c 0,2.10441 0.64355,3.90193 1.90625,5.375 1.2626,1.47309 2.958,2.18751 5.0625,2.1875 l 16.96875,0 c 2.0517,10e-6 3.767,-0.70453 5.1875,-2.125 1.4731,-1.47307 2.21865,-3.22945 2.21875,-5.28125 l 0,-36.5 c -4.72866,-2.71487 -10.18755,-4.25 -16.03125,-4.25 z"
         style="fill:#000000;fill-opacity:1;fill-rule:nonzero;stroke:none" />
      <g
         inkscape:export-ydpi="99.839996"
         inkscape:export-xdpi="99.839996"
         inkscape:export-filename="/home/rike/Desktop/text4742-4-4.png"
         transform="translate(1031.9922,125.08704)"
         style="font-size:16px;font-style:normal;font-weight:normal;fill:#000000;fill-opacity:1;stroke:none;font-family:Bitstream Vera Sans"
         id="text2816-4-7-0-57-8-7-6-5">
        <path
           inkscape:connector-curvature="0"
           d="m -501.1603,286.00456 c -4e-5,3.57749 -1.18377,6.57626 -3.55117,8.9963 -2.36749,2.36746 -5.36625,3.55118 -8.9963,3.55117 l -12.38964,0 -0.0789,-5.12947 12.46856,0 c 2.36741,2e-5 4.23506,-0.81544 5.60296,-2.44636 1.20999,-1.52567 1.815,-3.49854 1.81504,-5.91862 -4e-5,-2.20959 -0.68397,-4.05094 -2.05179,-5.52405 -1.36789,-1.47304 -3.15663,-2.18328 -5.36621,-2.1307 l -17.83477,0.23675 c -2.10441,3e-5 -3.78793,0.76287 -5.05056,2.28853 -1.26264,1.47311 -1.89396,3.26184 -1.89396,5.36621 l 0,11.67941 c 0,2.10441 0.65762,3.97206 1.97288,5.60296 1.31524,1.63092 3.02506,2.44637 5.12947,2.44636 l 26.51541,0 0,5.12947 -26.51541,0 c -3.68271,0 -6.65517,-1.21002 -8.91739,-3.63008 -2.26223,-2.47266 -3.39334,-5.52404 -3.39334,-9.15413 l 0,-12.31073 c 0,-3.68267 1.10481,-6.68143 3.31442,-8.9963 2.20962,-2.36741 5.15577,-3.55114 8.83848,-3.55117 l 18.22934,0 c 3.8931,3e-5 6.91817,1.31528 9.07522,3.94574 2.05174,2.42009 3.07764,5.60299 3.07768,9.54871"
           style="fill:#000000;fill-opacity:1"
           id="path4523-2-1-4-2" />
        <path
           inkscape:connector-curvature="0"
           d="m -477.02605,278.08036 -6.70777,0 c -2.0518,4e-5 -3.76162,0.8155 -5.12947,2.44636 -1.31526,1.63095 -1.97288,3.4986 -1.97287,5.60296 l 0,6.89026 13.57336,0 0,5.12947 -13.57336,0 0,11.5816 -5.12947,0 -0.0789,-23.9959 c 0,-3.57744 1.15742,-6.60251 3.47226,-9.07522 2.31483,-2.47262 5.26098,-3.70895 8.83847,-3.709 l 6.70777,0 0,5.12947"
           style="fill:#000000;fill-opacity:1"
           id="path4525-0-7-6-7"
           sodipodi:nodetypes="cccccccccccsccc" />
        <path
           inkscape:connector-curvature="0"
           d="m -431.38379,297.36831 c -4e-5,3.52487 -1.13115,6.54994 -3.39334,9.07521 -2.20966,2.47267 -5.07689,3.709 -8.60173,3.709 l -17.75585,0 c -3.57749,0 -6.52364,-1.23633 -8.83848,-3.709 -2.31483,-2.47266 -3.47225,-5.49773 -3.47225,-9.07521 l 0,-12.31073 c 0,-3.63006 1.13111,-6.60252 3.39334,-8.91739 2.31483,-2.3148 5.28729,-3.47222 8.91739,-3.47225 l 17.44019,0 c 3.57745,3e-5 6.5236,1.18376 8.83847,3.55117 2.3148,2.31487 3.47222,5.26102 3.47226,8.83847 l 0,12.31073 m -5.20838,-0.39458 0,-11.127 c -4e-5,-2.15698 -0.65766,-4.05094 -1.97288,-5.68188 -1.31528,-1.63087 -3.0251,-2.44633 -5.12947,-2.44636 l -17.44019,0 c -2.10441,3e-5 -3.81423,0.81549 -5.12947,2.44636 -1.31526,1.63094 -1.97288,3.5249 -1.97288,5.68188 l 0,11.127 c 0,2.10441 0.65762,3.97206 1.97288,5.60296 1.31524,1.63092 3.02506,2.44637 5.12947,2.44636 l 17.44019,0 c 2.10437,10e-6 3.81419,-0.81544 5.12947,-2.44636 1.31522,-1.6309 1.97284,-3.49855 1.97288,-5.60296"
           style="fill:#000000;fill-opacity:1"
           id="path4527-3-1-6-9" />
        <path
           inkscape:connector-curvature="0"
           d="m -389.21779,277.63958 -23.99014,0 c -2.0518,3e-5 -3.76162,0.81548 -5.12947,2.44636 -1.31525,1.63094 -1.97288,3.49859 -1.97287,5.60296 l 0,24.46362 -5.12947,0 -0.0789,-24.8582 c -10e-6,-3.57744 1.15741,-6.60251 3.47225,-9.07521 2.31483,-2.47263 5.26099,-3.70897 8.83847,-3.709 l 23.99014,0 0,5.12947"
           style="fill:#000000;fill-opacity:1"
           id="path4529-9-5-4-7" />
        <path
           inkscape:connector-curvature="0"
           d="m -347.98921,285.29432 -0.0789,24.8582 -5.12947,0 0,-21.22811 -24.70037,0 c -2.36746,2e-5 -4.2088,0.78917 -5.52404,2.36745 -1.26265,1.57831 -1.89397,3.57749 -1.89396,5.99753 -1e-5,2.0518 0.71023,3.84054 2.1307,5.36622 1.47307,1.52569 3.2355,2.28853 5.2873,2.28853 l 17.59803,0 0,5.12947 -17.59803,0 c -3.89314,0 -6.99713,-1.34155 -9.31196,-4.02466 -2.15701,-2.52527 -3.23551,-5.76078 -3.23551,-9.70654 0,-3.57746 1.21003,-6.54992 3.63008,-8.91738 2.42006,-2.42004 5.39252,-3.63006 8.91739,-3.63009 l 24.54254,0 c -0.36831,-1.78871 -1.18376,-3.26179 -2.44636,-4.41924 -1.26267,-1.15738 -2.76206,-1.73609 -4.49815,-1.73612 l -23.99014,0 0,-5.12947 23.99014,0 c 3.57744,3e-5 6.52359,1.23637 8.83847,3.709 2.31479,2.4727 3.47221,5.49777 3.47226,9.07521"
           style="fill:#000000;fill-opacity:1"
           id="path4531-3-0-6-1" />
      </g>
      <text
         inkscape:export-ydpi="99.839996"
         inkscape:export-xdpi="99.839996"
         id="text4742-4-4-8"
         y="408.38739"
         x="688.46332"
         style="font-size:18px;font-style:normal;font-variant:normal;font-weight:bold;font-stretch:normal;fill:#000000;fill-opacity:1;stroke:none;font-family:Birdman;-inkscape-font-specification:Birdman Bold"
         xml:space="preserve"><tspan
           style="font-size:18px;font-style:normal;font-variant:normal;font-weight:bold;font-stretch:normal;fill:#000000;fill-opacity:1;font-family:Birdman;-inkscape-font-specification:Birdman Bold"
           y="408.38739"
           x="688.46332"
           id="tspan4744-7-6-6"
           sodipodi:role="line">os</tspan></text>
    </g>
  </g>
</svg>
